<svg width="193" height="20" viewBox="0 0 193 20" fill="none" xmlns="http://www.w3.org/2000/svg">
<path d="M8.021 8.97803H15.1011V18.231C14.1652 18.5402 13.1927 18.7884 12.1836 18.9756C11.1745 19.1546 10.0311 19.2441 8.75342 19.2441C6.97933 19.2441 5.4738 18.8942 4.23682 18.1943C2.99984 17.4945 2.0599 16.4609 1.41699 15.0938C0.774089 13.7266 0.452637 12.0461 0.452637 10.0522C0.452637 8.1805 0.81071 6.56104 1.52686 5.19385C2.25114 3.82666 3.30501 2.76872 4.68848 2.02002C6.08008 1.27132 7.77686 0.896973 9.77881 0.896973C10.7228 0.896973 11.6546 0.998698 12.5742 1.20215C13.4938 1.4056 14.328 1.67008 15.0767 1.99561L13.8193 5.02295C13.2741 4.74626 12.6515 4.51432 11.9517 4.32715C11.2518 4.13997 10.5194 4.04639 9.75439 4.04639C8.65576 4.04639 7.69954 4.29867 6.88574 4.80322C6.08008 5.30778 5.45345 6.01579 5.00586 6.92725C4.56641 7.83057 4.34668 8.89665 4.34668 10.1255C4.34668 11.2892 4.50537 12.3228 4.82275 13.2261C5.14014 14.1213 5.64062 14.8252 6.32422 15.3379C7.00781 15.8424 7.89893 16.0947 8.99756 16.0947C9.53467 16.0947 9.98633 16.0703 10.3525 16.0215C10.7269 15.9645 11.0768 15.9076 11.4023 15.8506V12.1274H8.021V8.97803ZM19.3613 19V1.15332H23.1455V19H19.3613ZM34.5225 19H30.7383V4.30273H25.8921V1.15332H39.3687V4.30273H34.5225V19ZM56.7393 19H52.9673V11.2974H45.8994V19H42.1152V1.15332H45.8994V8.14795H52.9673V1.15332H56.7393V19ZM75.7822 1.15332V12.7012C75.7822 13.93 75.5096 15.0409 74.9644 16.0337C74.4272 17.0184 73.6094 17.7996 72.5107 18.3774C71.4202 18.9552 70.0449 19.2441 68.3848 19.2441C66.0247 19.2441 64.2262 18.6419 62.9893 17.4375C61.7523 16.2331 61.1338 14.638 61.1338 12.6523V1.15332H64.9058V12.0786C64.9058 13.5516 65.2069 14.5851 65.8091 15.1792C66.4113 15.7733 67.3024 16.0703 68.4824 16.0703C69.3125 16.0703 69.9839 15.9279 70.4966 15.6431C71.0174 15.3582 71.3999 14.9188 71.644 14.3247C71.8882 13.7306 72.0103 12.9738 72.0103 12.0542V1.15332H75.7822ZM80.1523 1.15332H85.7065C88.0828 1.15332 89.8813 1.48698 91.1021 2.1543C92.3228 2.82161 92.9331 3.99349 92.9331 5.66992C92.9331 6.34538 92.8232 6.95573 92.6035 7.50098C92.3919 8.04622 92.0827 8.49382 91.6758 8.84375C91.2689 9.19368 90.7725 9.42155 90.1865 9.52734V9.64941C90.7806 9.77148 91.3177 9.98307 91.7979 10.2842C92.278 10.5771 92.6605 11.0085 92.9453 11.5781C93.2383 12.1396 93.3848 12.8883 93.3848 13.8242C93.3848 14.9066 93.1203 15.8343 92.5913 16.6074C92.0623 17.3805 91.3055 17.9746 90.3208 18.3896C89.3442 18.7965 88.1805 19 86.8296 19H80.1523V1.15332ZM83.9365 8.22119H86.1338C87.2324 8.22119 87.9933 8.05029 88.4165 7.7085C88.8397 7.35856 89.0513 6.84587 89.0513 6.17041C89.0513 5.48682 88.799 4.99854 88.2944 4.70557C87.798 4.40446 87.0086 4.25391 85.9263 4.25391H83.9365V8.22119ZM83.9365 11.2241V15.875H86.4023C87.5417 15.875 88.3351 15.6553 88.7827 15.2158C89.2303 14.7764 89.4541 14.1864 89.4541 13.4458C89.4541 13.0063 89.3564 12.6198 89.1611 12.2861C88.9658 11.9525 88.6362 11.6921 88.1724 11.5049C87.7166 11.3177 87.0859 11.2241 86.2803 11.2241H83.9365ZM107.167 19H103.443V1.15332H113.673V4.25391H107.167V8.85596H113.221V11.9443H107.167V19ZM117.164 19V1.15332H120.948V19H117.164ZM141.273 19H136.463L128.7 5.49902H128.59C128.622 6.06055 128.651 6.62614 128.675 7.1958C128.7 7.76546 128.724 8.33512 128.749 8.90479C128.773 9.46631 128.797 10.0319 128.822 10.6016V19H125.44V1.15332H130.213L137.965 14.52H138.05C138.034 13.9666 138.014 13.4173 137.989 12.8721C137.965 12.3268 137.94 11.7816 137.916 11.2363C137.9 10.6911 137.883 10.1458 137.867 9.60059V1.15332H141.273V19ZM160.584 9.90576C160.584 11.9159 160.198 13.5964 159.425 14.9473C158.66 16.29 157.549 17.3032 156.092 17.9868C154.636 18.6623 152.882 19 150.831 19H145.777V1.15332H151.38C153.252 1.15332 154.876 1.48698 156.251 2.1543C157.626 2.81348 158.692 3.79411 159.449 5.09619C160.206 6.39014 160.584 7.99333 160.584 9.90576ZM156.654 10.0034C156.654 8.68506 156.458 7.6027 156.068 6.75635C155.685 5.90186 155.116 5.27116 154.359 4.86426C153.61 4.45736 152.682 4.25391 151.576 4.25391H149.562V15.875H151.185C153.032 15.875 154.404 15.3826 155.299 14.3979C156.202 13.4132 156.654 11.9484 156.654 10.0034ZM174.562 19H164.283V1.15332H174.562V4.25391H168.067V8.17236H174.11V11.2729H168.067V15.875H174.562V19ZM183.497 1.15332C185.117 1.15332 186.451 1.34863 187.501 1.73926C188.559 2.12988 189.344 2.71989 189.857 3.50928C190.37 4.29867 190.626 5.29557 190.626 6.5C190.626 7.3138 190.471 8.02588 190.162 8.63623C189.853 9.24658 189.446 9.76335 188.941 10.1865C188.437 10.6097 187.892 10.9556 187.306 11.2241L192.555 19H188.355L184.095 12.1519H182.081V19H178.297V1.15332H183.497ZM183.229 4.25391H182.081V9.07568H183.302C184.555 9.07568 185.45 8.86816 185.987 8.45312C186.533 8.02995 186.805 7.41146 186.805 6.59766C186.805 5.7513 186.512 5.14909 185.926 4.79102C185.348 4.43294 184.449 4.25391 183.229 4.25391Z" fill="#3F3F3F"/>
</svg>
